<svg viewBox="0 0 330 200" xmlns="http://www.w3.org/2000/svg"><g><g><g><g><g><line x1="70" y1="178" x2="65" y2="178" style="visibility: inherit;" fill="rgb(0, 0, 0)" stroke="rgb(204, 204, 204)" stroke-width="1px"></line><line x1="70" y1="155.75" x2="65" y2="155.75" style="visibility: inherit;" fill="rgb(0, 0, 0)" stroke="rgb(204, 204, 204)" stroke-width="1px"></line><line x1="70" y1="133.5" x2="65" y2="133.5" style="visibility: inherit;" fill="rgb(0, 0, 0)" stroke="rgb(204, 204, 204)" stroke-width="1px"></line><line x1="70" y1="111.25" x2="65" y2="111.25" style="visibility: inherit;" fill="rgb(0, 0, 0)" stroke="rgb(204, 204, 204)" stroke-width="1px"></line><line x1="70" y1="89" x2="65" y2="89" style="visibility: inherit;" fill="rgb(0, 0, 0)" stroke="rgb(204, 204, 204)" stroke-width="1px"></line><line x1="70" y1="66.75" x2="65" y2="66.75" style="visibility: inherit;" fill="rgb(0, 0, 0)" stroke="rgb(204, 204, 204)" stroke-width="1px"></line><line x1="70" y1="44.5" x2="65" y2="44.5" style="visibility: inherit;" fill="rgb(0, 0, 0)" stroke="rgb(204, 204, 204)" stroke-width="1px"></line><line x1="70" y1="22.25" x2="65" y2="22.25" style="visibility: inherit;" fill="rgb(0, 0, 0)" stroke="rgb(204, 204, 204)" stroke-width="1px"></line><line x1="70" y1="0" x2="65" y2="0" style="visibility: inherit;" fill="rgb(0, 0, 0)" stroke="rgb(204, 204, 204)" stroke-width="1px"></line></g><g transform="translate(60, 0)"><text x="0" y="178" dx="0em" dy="0.3em" style="text-anchor: end; visibility: hidden; font-family: &quot;Helvetica Neue&quot;, sans-serif; font-size: 12px; font-weight: 200;" fill="rgb(50, 49, 63)" stroke="none" stroke-width="1px">-5e+3</text><text x="0" y="155.75" dx="0em" dy="0.3em" style="text-anchor: end; visibility: inherit; font-family: &quot;Helvetica Neue&quot;, sans-serif; font-size: 12px; font-weight: 200;" fill="rgb(50, 49, 63)" stroke="none" stroke-width="1px">0</text><text x="0" y="133.5" dx="0em" dy="0.3em" style="text-anchor: end; visibility: hidden; font-family: &quot;Helvetica Neue&quot;, sans-serif; font-size: 12px; font-weight: 200;" fill="rgb(50, 49, 63)" stroke="none" stroke-width="1px">5e+3</text><text x="0" y="111.25" dx="0em" dy="0.3em" style="text-anchor: end; visibility: inherit; font-family: &quot;Helvetica Neue&quot;, sans-serif; font-size: 12px; font-weight: 200;" fill="rgb(50, 49, 63)" stroke="none" stroke-width="1px">1e+4</text><text x="0" y="89" dx="0em" dy="0.3em" style="text-anchor: end; visibility: hidden; font-family: &quot;Helvetica Neue&quot;, sans-serif; font-size: 12px; font-weight: 200;" fill="rgb(50, 49, 63)" stroke="none" stroke-width="1px">1.5e+4</text><text x="0" y="66.75" dx="0em" dy="0.3em" style="text-anchor: end; visibility: inherit; font-family: &quot;Helvetica Neue&quot;, sans-serif; font-size: 12px; font-weight: 200;" fill="rgb(50, 49, 63)" stroke="none" stroke-width="1px">2e+4</text><text x="0" y="44.5" dx="0em" dy="0.3em" style="text-anchor: end; visibility: hidden; font-family: &quot;Helvetica Neue&quot;, sans-serif; font-size: 12px; font-weight: 200;" fill="rgb(50, 49, 63)" stroke="none" stroke-width="1px">2.5e+4</text><text x="0" y="22.25" dx="0em" dy="0.3em" style="text-anchor: end; visibility: inherit; font-family: &quot;Helvetica Neue&quot;, sans-serif; font-size: 12px; font-weight: 200;" fill="rgb(50, 49, 63)" stroke="none" stroke-width="1px">3e+4</text><text x="0" y="0" dx="0em" dy="0.3em" style="text-anchor: end; visibility: hidden; font-family: &quot;Helvetica Neue&quot;, sans-serif; font-size: 12px; font-weight: 200;" fill="rgb(50, 49, 63)" stroke="none" stroke-width="1px">3.5e+4</text></g><line x1="70" y1="0" x2="70" y2="178" fill="rgb(0, 0, 0)" stroke="rgb(204, 204, 204)" stroke-width="1px"></line></g></g><g transform="translate(70, 0)" clip-path="url(#clip_0)"><clipPath id="clip_0"><rect width="260" height="178"></rect></clipPath><g><g><g><line x1="0" y1="0" x2="0" y2="178" fill="rgb(0, 0, 0)" stroke="rgb(60, 60, 60)" stroke-width="1px" opacity="0.25"></line><line x1="18.57142857142857" y1="0" x2="18.57142857142857" y2="178" fill="rgb(0, 0, 0)" stroke="rgb(60, 60, 60)" stroke-width="1px" opacity="0.25"></line><line x1="37.14285714285714" y1="0" x2="37.14285714285714" y2="178" fill="rgb(0, 0, 0)" stroke="rgb(60, 60, 60)" stroke-width="1px" opacity="0.25"></line><line x1="55.71428571428571" y1="0" x2="55.71428571428571" y2="178" fill="rgb(0, 0, 0)" stroke="rgb(60, 60, 60)" stroke-width="1px" opacity="0.25"></line><line x1="74.28571428571428" y1="0" x2="74.28571428571428" y2="178" fill="rgb(0, 0, 0)" stroke="rgb(60, 60, 60)" stroke-width="1px" opacity="0.25"></line><line x1="92.85714285714286" y1="0" x2="92.85714285714286" y2="178" fill="rgb(0, 0, 0)" stroke="rgb(60, 60, 60)" stroke-width="1px" opacity="0.25"></line><line x1="111.42857142857142" y1="0" x2="111.42857142857142" y2="178" fill="rgb(0, 0, 0)" stroke="rgb(60, 60, 60)" stroke-width="1px" opacity="0.25"></line><line x1="130" y1="0" x2="130" y2="178" fill="rgb(0, 0, 0)" stroke="rgb(60, 60, 60)" stroke-width="1px" opacity="0.25"></line><line x1="148.57142857142856" y1="0" x2="148.57142857142856" y2="178" fill="rgb(0, 0, 0)" stroke="rgb(60, 60, 60)" stroke-width="1px" opacity="0.25"></line><line x1="167.14285714285717" y1="0" x2="167.14285714285717" y2="178" fill="rgb(0, 0, 0)" stroke="rgb(60, 60, 60)" stroke-width="1px" opacity="0.25"></line><line x1="185.71428571428572" y1="0" x2="185.71428571428572" y2="178" fill="rgb(0, 0, 0)" stroke="rgb(60, 60, 60)" stroke-width="1px" opacity="0.25"></line><line x1="204.28571428571428" y1="0" x2="204.28571428571428" y2="178" fill="rgb(0, 0, 0)" stroke="rgb(60, 60, 60)" stroke-width="1px" opacity="0.25"></line><line x1="222.85714285714283" y1="0" x2="222.85714285714283" y2="178" fill="rgb(0, 0, 0)" stroke="rgb(60, 60, 60)" stroke-width="1px" opacity="0.25"></line><line x1="241.42857142857144" y1="0" x2="241.42857142857144" y2="178" fill="rgb(0, 0, 0)" stroke="rgb(60, 60, 60)" stroke-width="1px" opacity="0.25"></line><line x1="260" y1="0" x2="260" y2="178" fill="rgb(0, 0, 0)" stroke="rgb(60, 60, 60)" stroke-width="1px" opacity="0.25"></line></g><g><line x1="0" y1="178" x2="260" y2="178" fill="rgb(0, 0, 0)" stroke="rgb(60, 60, 60)" stroke-width="1px" opacity="0.25"></line><line x1="0" y1="155.75" x2="260" y2="155.75" fill="rgb(0, 0, 0)" stroke="rgb(60, 60, 60)" stroke-width="1px" opacity="0.25"></line><line x1="0" y1="133.5" x2="260" y2="133.5" fill="rgb(0, 0, 0)" stroke="rgb(60, 60, 60)" stroke-width="1px" opacity="0.25"></line><line x1="0" y1="111.25" x2="260" y2="111.25" fill="rgb(0, 0, 0)" stroke="rgb(60, 60, 60)" stroke-width="1px" opacity="0.25"></line><line x1="0" y1="89" x2="260" y2="89" fill="rgb(0, 0, 0)" stroke="rgb(60, 60, 60)" stroke-width="1px" opacity="0.25"></line><line x1="0" y1="66.75" x2="260" y2="66.75" fill="rgb(0, 0, 0)" stroke="rgb(60, 60, 60)" stroke-width="1px" opacity="0.25"></line><line x1="0" y1="44.5" x2="260" y2="44.5" fill="rgb(0, 0, 0)" stroke="rgb(60, 60, 60)" stroke-width="1px" opacity="0.25"></line><line x1="0" y1="22.25" x2="260" y2="22.25" fill="rgb(0, 0, 0)" stroke="rgb(60, 60, 60)" stroke-width="1px" opacity="0.25"></line><line x1="0" y1="0" x2="260" y2="0" fill="rgb(0, 0, 0)" stroke="rgb(60, 60, 60)" stroke-width="1px" opacity="0.25"></line></g></g></g><g><g><line x1="0" y1="155.75" x2="260" y2="155.75" fill="rgb(0, 0, 0)" stroke="rgb(153, 153, 153)" stroke-width="1.5px"></line></g></g><g><g><line x1="18.57142857142857" y1="0" x2="18.57142857142857" y2="178" fill="rgb(0, 0, 0)" stroke="rgb(153, 153, 153)" stroke-width="1.5px"></line></g></g><g><g><g><g><g><path stroke="rgb(0, 153, 136)" stroke-width="2px" d="M18.57142857142857,-65.26562949218751L27.857142857142854,3.379352380371074L37.14285714285714,32.89563240593114L46.42857142857143,49.91936602352371L55.71428571428571,61.30625211909319L65,69.47932268457137L74.28571428571428,75.72853160221862L83.57142857142858,80.44423031406336L92.85714285714286,84.46732278509093L102.14285714285714,87.6586876064074L111.42857142857142,90.59718165405253L120.71428571428572,92.98921694823197L130,94.94537201587407L139.28571428571428,96.55569903508226L148.57142857142856,98.21169386526553L157.85714285714283,99.92050728092376L167.14285714285717,101.63748153790826L176.42857142857144,103.36850970635948L185.71428571428572,104.25406209050026L195,105.31934026505805L204.28571428571428,106.89467674445717L213.57142857142856,108.10847317521349L222.85714285714283,109.32158082915586L232.14285714285717,110.71489474798369L241.42857142857144,111.67515938353772" style="fill: none;" fill="none"></path></g><g><path stroke="rgb(238, 51, 119)" stroke-width="2px" d="M18.57142857142857,-11.20901113281252L27.857142857142854,31.99433426513673L37.14285714285714,51.55687662228955L46.42857142857143,63.74516686544979L55.71428571428571,71.96951415344705L65,77.92812721494023L74.28571428571428,82.87857614182504L83.57142857142858,86.47651483674129L92.85714285714286,90.04755158811116L102.14285714285714,92.96368038733796L111.42857142857142,95.09461264894449L120.71428571428572,97.41686839637612L130,99.9020522705974L139.28571428571428,101.57286605270616L148.57142857142856,103.6837497937129L157.85714285714283,105.54695101358233L167.14285714285717,107.06275601142423L176.42857142857144,108.04016322385118L185.71428571428572,109.62603494204225L195,111.01749031560092L204.28571428571428,112.54339811234333L213.57142857142856,113.87946754672953L222.85714285714283,115.3315088311841L232.14285714285717,116.35811543660154L241.42857142857144,117.5584889734856" style="fill: none;" fill="none"></path></g><g><path stroke="rgb(51, 187, 238)" stroke-width="2px" d="M18.57142857142857,35.29666123046874L27.857142857142854,58.33498807373046L37.14285714285714,70.43983382294326L46.42857142857143,78.62500486737422L55.71428571428571,84.51522812635542L65,89.6980418582904L74.28571428571428,94.28810233425804L83.57142857142858,98.09568061805959L92.85714285714286,101.6714398004703L102.14285714285714,104.90901820855336L111.42857142857142,107.81097264602262L120.71428571428572,110.36162709622852L130,112.90228772043199L139.28571428571428,115.12937396352729L148.57142857142856,117.44924779444216L157.85714285714283,119.49076140696815L167.14285714285717,121.55335864877297L176.42857142857144,123.36289909306603L185.71428571428572,124.97869817980262L195,126.44968706456584L204.28571428571428,128.15814324244897L213.57142857142856,129.77395388296623L222.85714285714283,131.16336569496286L232.14285714285717,132.4857275871295L241.42857142857144,133.58217788240808" style="fill: none;" fill="none"></path></g><g><path stroke="rgb(204, 51, 17)" stroke-width="2px" d="M18.57142857142857,-11.695469140624994L27.857142857142854,32.891890356445316L37.14285714285714,55.3411175641741L46.42857142857143,68.4243917611515L55.71428571428571,77.75381825287481L65,84.62033846318852L74.28571428571428,90.21873725817032L83.57142857142858,95.05167682965265L92.85714285714286,98.81862665185322L102.14285714285714,101.8163574549774L111.42857142857142,104.93280560120648L120.71428571428572,108.00720188271208L130,110.7467040509911L139.28571428571428,112.14099018798977L148.57142857142856,115.20991661693516L157.85714285714283,116.24541996813116L167.14285714285717,118.68057860548194L176.42857142857144,120.69725924291231L185.71428571428572,122.38231337264641L195,123.78155335194032L204.28571428571428,125.58478451777603L213.57142857142856,127.18708792350293L222.85714285714283,128.606823126336L232.14285714285717,128.84598390552094L241.42857142857144,130.09914418928645" style="fill: none;" fill="none"></path></g><g><path stroke="rgb(0, 119, 187)" stroke-width="2px" d="M18.57142857142857,15.45065205078123L27.857142857142854,49.10031135253905L37.14285714285714,64.68526101721937L46.42857142857143,74.83896033935547L55.71428571428571,82.39266024838304L65,87.52896046981729L74.28571428571428,92.26857373301631L83.57142857142858,96.48497445994973L92.85714285714286,99.00441029219118L102.14285714285714,102.55589863599052L111.42857142857142,105.74998096826201L120.71428571428572,108.06887809260022L130,110.6611076630653L139.28571428571428,112.61627917352499L148.57142857142856,114.87296749085792L157.85714285714283,116.80520440837965L167.14285714285717,118.49581056598714L176.42857142857144,120.45198315292672L185.71428571428572,122.17075601357313L195,123.51856612840464L204.28571428571428,124.97660202323237L213.57142857142856,125.76302075436988L222.85714285714283,126.60731418862173L232.14285714285717,127.71654573202571L241.42857142857144,128.99375117776916" style="fill: none;" fill="none"></path></g><g><path stroke="rgb(255, 112, 67)" stroke-width="2px" d="M18.57142857142857,35.449186718749985L27.857142857142854,57.95521925048827L37.14285714285714,69.21665603675063L46.42857142857143,76.8610193585564L55.71428571428571,82.49937780970112L65,87.40943834106575L74.28571428571428,91.72111268209757L83.57142857142858,94.92928337788479L92.85714285714286,97.97854106166241L102.14285714285714,100.8178571338125L111.42857142857142,103.19754619871945L120.71428571428572,105.62801229928262L130,107.40305044867692L139.28571428571428,108.86578467318537L148.57142857142856,111.0104369997323L157.85714285714283,112.66426700564837L167.14285714285717,113.76443183469922L176.42857142857144,115.2527692992767L185.71428571428572,116.5564646152599L195,117.80553994514153L204.28571428571428,119.32106542598322L213.57142857142856,120.48553813726565L222.85714285714283,121.32290703437715L232.14285714285717,122.15813878374158L241.42857142857144,123.24534109752057" style="fill: none;" fill="none"></path></g></g></g></g><g opacity="0.2"><g><g><g><path stroke="rgb(0, 153, 136)" stroke-width="2px" d="M18.57142857142857,-65.26562949218751L27.857142857142854,44.566341503906244L37.14285714285714,61.231261230468746L46.42857142857143,69.93927675781251L55.71428571428571,76.17297060546873L65,80.78562158203124L74.28571428571428,84.66500034179687L83.57142857142858,87.31976430664064L92.85714285714286,90.400602734375L102.14285714285714,92.39749243164063L111.42857142857142,94.97827080078125L120.71428571428572,96.5642525390625L130,97.87321743164063L139.28571428571428,98.968034765625L148.57142857142856,100.69373955078125L157.85714285714283,102.48252221679687L167.14285714285717,104.21221635742187L176.42857142857144,105.96461245117187L185.71428571428572,105.58225576171874L195,106.91716015625L204.28571428571428,109.25759506835938L213.57142857142856,109.92912788085937L222.85714285714283,111.14121835937499L232.14285714285717,112.80484912109375L241.42857142857144,113.11554951171875" style="fill: none;" fill="none"></path></g><g><path stroke="rgb(238, 51, 119)" stroke-width="2px" d="M18.57142857142857,-11.20901113281252L27.857142857142854,57.91634150390625L37.14285714285714,70.33691728515626L46.42857142857143,78.07859619140625L55.71428571428571,82.70722197265626L65,86.1710341796875L74.28571428571428,89.95779731445312L83.57142857142858,91.72234399414063L92.85714285714286,95.31413715820312L102.14285714285714,97.293791796875L111.42857142857142,98.27168364257813L120.71428571428572,100.88761440429688L130,103.62171352539063L139.28571428571428,104.07581342773437L148.57142857142856,106.847594140625L157.85714285714283,108.34043876953125L167.14285714285717,109.33582207031249L176.42857142857144,109.50602587890624L185.71428571428572,112.00460092773437L195,113.10454619140626L204.28571428571428,114.83217612304688L213.57142857142856,115.88352773437501L222.85714285714283,117.50954208984375L232.14285714285717,117.89801318359375L241.42857142857144,119.35904074707031" style="fill: none;" fill="none"></path></g><g><path stroke="rgb(51, 187, 238)" stroke-width="2px" d="M18.57142857142857,35.29666123046874L27.857142857142854,72.15798417968749L37.14285714285714,82.0604857421875L46.42857142857143,88.250766015625L55.71428571428571,92.20550361328125L65,96.8677390625L74.28571428571428,100.85196225585938L83.57142857142858,103.64716630859375L92.85714285714286,106.9449900390625L102.14285714285714,109.71644482421875L111.42857142857142,112.1375837890625L120.71428571428572,114.17372822265625L130,116.70498295898437L139.28571428571428,118.465640234375L148.57142857142856,120.92633161621094L157.85714285714283,122.5515919921875L167.14285714285717,124.64638168945312L176.42857142857144,126.07675031738282L185.71428571428572,127.40215065917968L195,128.6560359375L204.28571428571428,130.72073381347656L213.57142857142856,132.1976166748047L222.85714285714283,133.2474559814453L232.14285714285717,134.4692547607422L241.42857142857144,135.22684553222655" style="fill: none;" fill="none"></path></g><g><path stroke="rgb(204, 51, 17)" stroke-width="2px" d="M18.57142857142857,-11.695469140624994L27.857142857142854,59.644306054687505L37.14285714285714,76.89237568359376L46.42857142857143,83.81032221679688L55.71428571428571,89.93431748046875L65,94.11920786132812L74.28571428571428,98.224537109375L83.57142857142858,102.09814912109375L92.85714285714286,104.37414594726563L102.14285714285714,106.26763833007813L111.42857142857142,109.57921186523438L120.71428571428572,112.60206557617187L130,114.84701235351562L139.28571428571428,114.22968784179687L148.57142857142856,119.80969885253907L157.85714285714283,117.79794467773438L167.14285714285717,122.33228608398437L176.42857142857144,123.7217681640625L185.71428571428572,124.90963786621094L195,125.88028542480468L204.28571428571428,128.28953237304688L213.57142857142856,129.5904903076172L222.85714285714283,130.7363979003906L232.14285714285717,129.20472224121096L241.42857142857144,131.97887570800782" style="fill: none;" fill="none"></path></g><g><path stroke="rgb(0, 119, 187)" stroke-width="2px" d="M18.57142857142857,15.45065205078123L27.857142857142854,69.29010693359375L37.14285714285714,79.6468126953125L46.42857142857143,86.77971074218749L55.71428571428571,92.25477084960939L65,94.63431274414062L74.28571428571428,99.04629653320312L83.57142857142858,102.63252719726562L92.85714285714286,102.72008876953126L102.14285714285714,107.829444921875L111.42857142857142,110.512134375L120.71428571428572,111.53460444335937L130,114.54098793945313L139.28571428571428,115.5452060546875L148.57142857142856,118.25534731445313L157.85714285714283,119.70219702148438L167.14285714285717,121.03100439453125L176.42857142857144,123.38574536132812L185.71428571428572,124.74865346679687L195,125.54015810546875L204.28571428571428,127.16357590332031L213.57142857142856,126.94262297363281L222.85714285714283,127.87373767089844L232.14285714285717,129.38037990722657L241.42857142857144,130.90955026855468" style="fill: none;" fill="none"></path></g><g><path stroke="rgb(255, 112, 67)" stroke-width="2px" d="M18.57142857142857,35.44918671875001L27.857142857142854,71.45883876953125L37.14285714285714,80.0276353515625L46.42857142857143,85.850790625L55.71428571428571,89.86081860351563L65,94.20181967773438L74.28571428571428,97.88687597656251L83.57142857142858,99.60682705078125L92.85714285714286,102.47560385742187L102.14285714285714,105.03391059570312L111.42857142857142,106.74549619140625L120.71428571428572,109.2604849609375L130,110.05981186523438L139.28571428571428,111.05702036132811L148.57142857142856,114.22489453124999L157.85714285714283,115.14384560546875L167.14285714285717,115.41421352539062L176.42857142857144,117.48489760742189L185.71428571428572,118.511808984375L195,119.67903876953125L204.28571428571428,121.59427053222657L213.57142857142856,122.23220888671875L222.85714285714283,122.57894384765625L232.14285714285717,123.41097651367187L241.42857142857144,124.87613684082031" style="fill: none;" fill="none"></path></g></g></g></g></g></g><g transform="translate(70, 178)" clip-path="url(#clip_1)"><clipPath id="clip_1"><rect width="260" height="22"></rect></clipPath><g><g><line x1="0" y1="0" x2="0" y2="5" style="visibility: inherit;" fill="rgb(0, 0, 0)" stroke="rgb(204, 204, 204)" stroke-width="1px"></line><line x1="18.57142857142857" y1="0" x2="18.57142857142857" y2="5" style="visibility: inherit;" fill="rgb(0, 0, 0)" stroke="rgb(204, 204, 204)" stroke-width="1px"></line><line x1="37.14285714285714" y1="0" x2="37.14285714285714" y2="5" style="visibility: inherit;" fill="rgb(0, 0, 0)" stroke="rgb(204, 204, 204)" stroke-width="1px"></line><line x1="55.71428571428571" y1="0" x2="55.71428571428571" y2="5" style="visibility: inherit;" fill="rgb(0, 0, 0)" stroke="rgb(204, 204, 204)" stroke-width="1px"></line><line x1="74.28571428571428" y1="0" x2="74.28571428571428" y2="5" style="visibility: inherit;" fill="rgb(0, 0, 0)" stroke="rgb(204, 204, 204)" stroke-width="1px"></line><line x1="92.85714285714286" y1="0" x2="92.85714285714286" y2="5" style="visibility: inherit;" fill="rgb(0, 0, 0)" stroke="rgb(204, 204, 204)" stroke-width="1px"></line><line x1="111.42857142857142" y1="0" x2="111.42857142857142" y2="5" style="visibility: inherit;" fill="rgb(0, 0, 0)" stroke="rgb(204, 204, 204)" stroke-width="1px"></line><line x1="130" y1="0" x2="130" y2="5" style="visibility: inherit;" fill="rgb(0, 0, 0)" stroke="rgb(204, 204, 204)" stroke-width="1px"></line><line x1="148.57142857142856" y1="0" x2="148.57142857142856" y2="5" style="visibility: inherit;" fill="rgb(0, 0, 0)" stroke="rgb(204, 204, 204)" stroke-width="1px"></line><line x1="167.14285714285717" y1="0" x2="167.14285714285717" y2="5" style="visibility: inherit;" fill="rgb(0, 0, 0)" stroke="rgb(204, 204, 204)" stroke-width="1px"></line><line x1="185.71428571428572" y1="0" x2="185.71428571428572" y2="5" style="visibility: inherit;" fill="rgb(0, 0, 0)" stroke="rgb(204, 204, 204)" stroke-width="1px"></line><line x1="204.28571428571428" y1="0" x2="204.28571428571428" y2="5" style="visibility: inherit;" fill="rgb(0, 0, 0)" stroke="rgb(204, 204, 204)" stroke-width="1px"></line><line x1="222.85714285714283" y1="0" x2="222.85714285714283" y2="5" style="visibility: inherit;" fill="rgb(0, 0, 0)" stroke="rgb(204, 204, 204)" stroke-width="1px"></line><line x1="241.42857142857144" y1="0" x2="241.42857142857144" y2="5" style="visibility: inherit;" fill="rgb(0, 0, 0)" stroke="rgb(204, 204, 204)" stroke-width="1px"></line><line x1="260" y1="0" x2="260" y2="5" style="visibility: inherit;" fill="rgb(0, 0, 0)" stroke="rgb(204, 204, 204)" stroke-width="1px"></line></g><g transform="translate(0, 8)"><text x="0" y="0" dx="0em" dy="0.95em" style="text-anchor: middle; visibility: hidden; font-family: &quot;Helvetica Neue&quot;, sans-serif; font-size: 12px; font-weight: 200;" fill="rgb(50, 49, 63)" stroke="none" stroke-width="1px">-2</text><text x="18.57142857142857" y="0" dx="0em" dy="0.95em" style="text-anchor: middle; visibility: inherit; font-family: &quot;Helvetica Neue&quot;, sans-serif; font-size: 12px; font-weight: 200;" fill="rgb(50, 49, 63)" stroke="none" stroke-width="1px">0</text><text x="37.14285714285714" y="0" dx="0em" dy="0.95em" style="text-anchor: middle; visibility: hidden; font-family: &quot;Helvetica Neue&quot;, sans-serif; font-size: 12px; font-weight: 200;" fill="rgb(50, 49, 63)" stroke="none" stroke-width="1px">2</text><text x="55.71428571428571" y="0" dx="0em" dy="0.95em" style="text-anchor: middle; visibility: inherit; font-family: &quot;Helvetica Neue&quot;, sans-serif; font-size: 12px; font-weight: 200;" fill="rgb(50, 49, 63)" stroke="none" stroke-width="1px">4</text><text x="74.28571428571428" y="0" dx="0em" dy="0.95em" style="text-anchor: middle; visibility: hidden; font-family: &quot;Helvetica Neue&quot;, sans-serif; font-size: 12px; font-weight: 200;" fill="rgb(50, 49, 63)" stroke="none" stroke-width="1px">6</text><text x="92.85714285714286" y="0" dx="0em" dy="0.95em" style="text-anchor: middle; visibility: inherit; font-family: &quot;Helvetica Neue&quot;, sans-serif; font-size: 12px; font-weight: 200;" fill="rgb(50, 49, 63)" stroke="none" stroke-width="1px">8</text><text x="111.42857142857142" y="0" dx="0em" dy="0.95em" style="text-anchor: middle; visibility: hidden; font-family: &quot;Helvetica Neue&quot;, sans-serif; font-size: 12px; font-weight: 200;" fill="rgb(50, 49, 63)" stroke="none" stroke-width="1px">10</text><text x="130" y="0" dx="0em" dy="0.95em" style="text-anchor: middle; visibility: inherit; font-family: &quot;Helvetica Neue&quot;, sans-serif; font-size: 12px; font-weight: 200;" fill="rgb(50, 49, 63)" stroke="none" stroke-width="1px">12</text><text x="148.57142857142856" y="0" dx="0em" dy="0.95em" style="text-anchor: middle; visibility: hidden; font-family: &quot;Helvetica Neue&quot;, sans-serif; font-size: 12px; font-weight: 200;" fill="rgb(50, 49, 63)" stroke="none" stroke-width="1px">14</text><text x="167.14285714285717" y="0" dx="0em" dy="0.95em" style="text-anchor: middle; visibility: inherit; font-family: &quot;Helvetica Neue&quot;, sans-serif; font-size: 12px; font-weight: 200;" fill="rgb(50, 49, 63)" stroke="none" stroke-width="1px">16</text><text x="185.71428571428572" y="0" dx="0em" dy="0.95em" style="text-anchor: middle; visibility: hidden; font-family: &quot;Helvetica Neue&quot;, sans-serif; font-size: 12px; font-weight: 200;" fill="rgb(50, 49, 63)" stroke="none" stroke-width="1px">18</text><text x="204.28571428571428" y="0" dx="0em" dy="0.95em" style="text-anchor: middle; visibility: inherit; font-family: &quot;Helvetica Neue&quot;, sans-serif; font-size: 12px; font-weight: 200;" fill="rgb(50, 49, 63)" stroke="none" stroke-width="1px">20</text><text x="222.85714285714283" y="0" dx="0em" dy="0.95em" style="text-anchor: middle; visibility: hidden; font-family: &quot;Helvetica Neue&quot;, sans-serif; font-size: 12px; font-weight: 200;" fill="rgb(50, 49, 63)" stroke="none" stroke-width="1px">22</text><text x="241.42857142857144" y="0" dx="0em" dy="0.95em" style="text-anchor: middle; visibility: inherit; font-family: &quot;Helvetica Neue&quot;, sans-serif; font-size: 12px; font-weight: 200;" fill="rgb(50, 49, 63)" stroke="none" stroke-width="1px">24</text><text x="260" y="0" dx="0em" dy="0.95em" style="text-anchor: middle; visibility: hidden; font-family: &quot;Helvetica Neue&quot;, sans-serif; font-size: 12px; font-weight: 200;" fill="rgb(50, 49, 63)" stroke="none" stroke-width="1px">26</text></g><line x1="0" y1="0" x2="260" y2="0" fill="rgb(0, 0, 0)" stroke="rgb(204, 204, 204)" stroke-width="1px"></line></g></g></g></g></svg>